<svg width="150" height="150" viewBox="0 0 150 150" fill="none" xmlns="http://www.w3.org/2000/svg">
<path fill-rule="evenodd" clip-rule="evenodd" d="M75 150C116.421 150 150 116.421 150 75C150 33.5786 116.421 0 75 0C33.5786 0 0 33.5786 0 75C0 116.421 33.5786 150 75 150ZM75 140C110.899 140 140 110.899 140 75C140 39.1015 110.899 10 75 10C39.1015 10 10 39.1015 10 75C10 110.899 39.1015 140 75 140Z" fill="white"/>
<g filter="url(#filter0_d_7_1214)">
<mask id="mask0_7_1214" style="mask-type:alpha" maskUnits="userSpaceOnUse" x="77" y="0" width="55" height="77">
<path d="M77 76.0005V0.219727C99 0.219438 113 1.71966 131.5 23.9707L77 76.0005Z" fill="#FFD027"/>
</mask>
<g mask="url(#mask0_7_1214)">
<path fill-rule="evenodd" clip-rule="evenodd" d="M75 150.233C116.421 150.233 150 116.654 150 75.233C150 33.8117 116.421 0.233032 75 0.233032C33.5786 0.233032 0 33.8117 0 75.233C0 116.654 33.5786 150.233 75 150.233ZM75 135.233C108.137 135.233 135 108.37 135 75.233C135 42.0959 108.137 15.233 75 15.233C41.8629 15.233 15 42.0959 15 75.233C15 108.37 41.8629 135.233 75 135.233Z" fill="#FFD027"/>
</g>
</g>
<path d="M41.6805 92V68.72L36.0005 71.44V68.12L42.6805 64.48H45.1205V92H41.6805ZM62.9986 92.32C59.6119 92.32 57.2119 91.9733 55.7986 91.28C54.4119 90.56 53.5319 89.3067 53.1586 87.52C52.8119 85.7333 52.6386 82.64 52.6386 78.24C52.6386 73.84 52.8119 70.7467 53.1586 68.96C53.5319 67.1733 54.4119 65.9333 55.7986 65.24C57.2119 64.52 59.6119 64.16 62.9986 64.16C66.3853 64.16 68.7719 64.52 70.1586 65.24C71.5719 65.9333 72.4519 67.1867 72.7986 69C73.1719 70.7867 73.3586 73.8667 73.3586 78.24C73.3586 82.64 73.1719 85.7333 72.7986 87.52C72.4519 89.3067 71.5719 90.56 70.1586 91.28C68.7719 91.9733 66.3853 92.32 62.9986 92.32ZM62.9986 89.12C65.4519 89.12 67.0919 88.9467 67.9186 88.6C68.7719 88.2267 69.3186 87.3733 69.5586 86.04C69.7986 84.7067 69.9186 82.1067 69.9186 78.24C69.9186 74.3733 69.7986 71.7733 69.5586 70.44C69.3186 69.1067 68.7719 68.2667 67.9186 67.92C67.0919 67.5467 65.4519 67.36 62.9986 67.36C60.5453 67.36 58.8919 67.5467 58.0386 67.92C57.1853 68.2667 56.6386 69.1067 56.3986 70.44C56.1586 71.7733 56.0386 74.3733 56.0386 78.24C56.0386 82.1067 56.1586 84.7067 56.3986 86.04C56.6386 87.3733 57.1853 88.2267 58.0386 88.6C58.8919 88.9467 60.5453 89.12 62.9986 89.12ZM84.3536 79.56C82.5669 79.56 81.2869 79.36 80.5136 78.96C79.7403 78.5333 79.2336 77.8267 78.9936 76.84C78.7803 75.8267 78.6736 74.1733 78.6736 71.88C78.6736 69.6133 78.7803 67.9733 78.9936 66.96C79.2336 65.9467 79.7403 65.2267 80.5136 64.8C81.2869 64.3733 82.5669 64.16 84.3536 64.16C86.1403 64.16 87.4069 64.3733 88.1536 64.8C88.9269 65.2267 89.4203 65.9467 89.6336 66.96C89.8469 67.9467 89.9536 69.5867 89.9536 71.88C89.9536 74.2 89.8469 75.8533 89.6336 76.84C89.4203 77.8267 88.9269 78.5333 88.1536 78.96C87.4069 79.36 86.1403 79.56 84.3536 79.56ZM82.6736 92L100.674 64.48H103.234L85.2736 92H82.6736ZM84.3536 77.44C85.5003 77.44 86.2736 77.36 86.6736 77.2C87.0736 77.0133 87.3403 76.5733 87.4736 75.88C87.6069 75.16 87.6736 73.8267 87.6736 71.88C87.6736 69.88 87.6203 68.5467 87.5136 67.88C87.4069 67.1867 87.1403 66.7467 86.7136 66.56C86.3136 66.3733 85.5269 66.28 84.3536 66.28C83.2069 66.28 82.4203 66.3733 81.9936 66.56C81.5936 66.7467 81.3269 67.2 81.1936 67.92C81.0603 68.6133 80.9936 69.9333 80.9936 71.88C80.9936 73.8267 81.0603 75.16 81.1936 75.88C81.3269 76.5733 81.5936 77.0133 81.9936 77.2C82.4203 77.36 83.2069 77.44 84.3536 77.44ZM101.634 92.32C99.8469 92.32 98.5669 92.12 97.7936 91.72C97.0203 91.2933 96.5136 90.5867 96.2736 89.6C96.0603 88.5867 95.9536 86.9333 95.9536 84.64C95.9536 82.3733 96.0603 80.7333 96.2736 79.72C96.5136 78.7067 97.0203 77.9867 97.7936 77.56C98.5669 77.1333 99.8469 76.92 101.634 76.92C103.42 76.92 104.7 77.1333 105.474 77.56C106.247 77.9867 106.74 78.7067 106.954 79.72C107.167 80.7067 107.274 82.3467 107.274 84.64C107.274 86.9333 107.167 88.5867 106.954 89.6C106.74 90.5867 106.247 91.2933 105.474 91.72C104.7 92.12 103.42 92.32 101.634 92.32ZM101.634 90.2C102.78 90.2 103.554 90.12 103.954 89.96C104.38 89.7733 104.647 89.3333 104.754 88.64C104.887 87.92 104.954 86.5867 104.954 84.64C104.954 82.64 104.9 81.3067 104.794 80.64C104.687 79.9467 104.42 79.5067 103.994 79.32C103.594 79.1333 102.807 79.04 101.634 79.04C100.487 79.04 99.7003 79.1333 99.2736 79.32C98.8736 79.5067 98.6069 79.96 98.4736 80.68C98.3669 81.3733 98.3136 82.6933 98.3136 84.64C98.3136 86.5867 98.3669 87.92 98.4736 88.64C98.6069 89.3333 98.8736 89.7733 99.2736 89.96C99.7003 90.12 100.487 90.2 101.634 90.2Z" fill="black"/>
<defs>
<filter id="filter0_d_7_1214" x="75" y="0.233032" width="58.5" height="79.7675" filterUnits="userSpaceOnUse" color-interpolation-filters="sRGB">
<feFlood flood-opacity="0" result="BackgroundImageFix"/>
<feColorMatrix in="SourceAlpha" type="matrix" values="0 0 0 0 0 0 0 0 0 0 0 0 0 0 0 0 0 0 127 0" result="hardAlpha"/>
<feOffset dy="2"/>
<feGaussianBlur stdDeviation="1"/>
<feColorMatrix type="matrix" values="0 0 0 0 0 0 0 0 0 0 0 0 0 0 0 0 0 0 0.1 0"/>
<feBlend mode="normal" in2="BackgroundImageFix" result="effect1_dropShadow_7_1214"/>
<feBlend mode="normal" in="SourceGraphic" in2="effect1_dropShadow_7_1214" result="shape"/>
</filter>
</defs>
</svg>
