<svg width="153" height="151" viewBox="0 0 153 151" fill="none" xmlns="http://www.w3.org/2000/svg">
<path fill-rule="evenodd" clip-rule="evenodd" d="M75 150.029C116.421 150.029 150 116.451 150 75.0293C150 33.6079 116.421 0.0292969 75 0.0292969C33.5786 0.0292969 0 33.6079 0 75.0293C0 116.451 33.5786 150.029 75 150.029ZM75 140.029C110.899 140.029 140 110.928 140 75.0293C140 39.1308 110.899 10.0293 75 10.0293C39.1015 10.0293 10 39.1308 10 75.0293C10 110.928 39.1015 140.029 75 140.029Z" fill="white"/>
<g filter="url(#filter0_d_7_1184)">
<mask id="mask0_7_1184" style="mask-type:alpha" maskUnits="userSpaceOnUse" x="77" y="0" width="76" height="77">
<path d="M77 76.0293V0.248535C132.2 -3.52644 150.167 36.5929 152.5 60.0292L77 76.0293Z" fill="#FFD027"/>
</mask>
<g mask="url(#mask0_7_1184)">
<path fill-rule="evenodd" clip-rule="evenodd" d="M75 150.262C116.421 150.262 150 116.683 150 75.2618C150 33.8405 116.421 0.261841 75 0.261841C33.5786 0.261841 0 33.8405 0 75.2618C0 116.683 33.5786 150.262 75 150.262ZM75 135.262C108.137 135.262 135 108.399 135 75.2618C135 42.1248 108.137 15.2618 75 15.2618C41.8629 15.2618 15 42.1248 15 75.2618C15 108.399 41.8629 135.262 75 135.262Z" fill="#FFD027"/>
</g>
</g>
<path d="M41.4325 87.76H56.8725V91H38.1125V87.72C38.1125 85.4267 38.1925 83.76 38.3525 82.72C38.5392 81.6533 38.9525 80.7867 39.5925 80.12C40.2325 79.4267 41.2992 78.76 42.7925 78.12C45.6725 76.92 48.0992 75.92 50.0725 75.12C51.0592 74.72 51.7792 74.3467 52.2325 74C52.7125 73.6267 53.0325 73.1867 53.1925 72.68C53.3792 72.1733 53.4725 71.48 53.4725 70.6C53.4725 69.3467 53.2725 68.4267 52.8725 67.84C52.4992 67.2533 51.8458 66.8667 50.9125 66.68C50.0058 66.4667 48.5925 66.36 46.6725 66.36C44.5658 66.36 41.8992 66.5333 38.6725 66.88V63.88C39.7925 63.6667 41.2058 63.4933 42.9125 63.36C44.6192 63.2267 46.2192 63.16 47.7125 63.16C49.7125 63.16 51.3525 63.32 52.6325 63.64C53.9125 63.9333 54.9392 64.6 55.7125 65.64C56.4858 66.6533 56.8725 68.1867 56.8725 70.24C56.8725 71.8133 56.7125 73.08 56.3925 74.04C56.0725 75 55.5525 75.7733 54.8325 76.36C54.1392 76.92 53.1658 77.4667 51.9125 78L43.6325 81.4C42.6992 81.7467 42.0992 82.2133 41.8325 82.8C41.6725 83.1733 41.5658 83.6 41.5125 84.08C41.4592 84.56 41.4325 85.2 41.4325 86V87.76ZM73.1666 91.32C69.7799 91.32 67.3799 90.9733 65.9666 90.28C64.5799 89.56 63.6999 88.3067 63.3266 86.52C62.9799 84.7333 62.8066 81.64 62.8066 77.24C62.8066 72.84 62.9799 69.7467 63.3266 67.96C63.6999 66.1733 64.5799 64.9333 65.9666 64.24C67.3799 63.52 69.7799 63.16 73.1666 63.16C76.5532 63.16 78.9399 63.52 80.3266 64.24C81.7399 64.9333 82.6199 66.1867 82.9666 68C83.3399 69.7867 83.5266 72.8667 83.5266 77.24C83.5266 81.64 83.3399 84.7333 82.9666 86.52C82.6199 88.3067 81.7399 89.56 80.3266 90.28C78.9399 90.9733 76.5532 91.32 73.1666 91.32ZM73.1666 88.12C75.6199 88.12 77.2599 87.9467 78.0866 87.6C78.9399 87.2267 79.4866 86.3733 79.7266 85.04C79.9666 83.7067 80.0866 81.1067 80.0866 77.24C80.0866 73.3733 79.9666 70.7733 79.7266 69.44C79.4866 68.1067 78.9399 67.2667 78.0866 66.92C77.2599 66.5467 75.6199 66.36 73.1666 66.36C70.7132 66.36 69.0599 66.5467 68.2066 66.92C67.3532 67.2667 66.8066 68.1067 66.5666 69.44C66.3266 70.7733 66.2066 73.3733 66.2066 77.24C66.2066 81.1067 66.3266 83.7067 66.5666 85.04C66.8066 86.3733 67.3532 87.2267 68.2066 87.6C69.0599 87.9467 70.7132 88.12 73.1666 88.12ZM94.5216 78.56C92.7349 78.56 91.4549 78.36 90.6816 77.96C89.9082 77.5333 89.4016 76.8267 89.1616 75.84C88.9482 74.8267 88.8416 73.1733 88.8416 70.88C88.8416 68.6133 88.9482 66.9733 89.1616 65.96C89.4016 64.9467 89.9082 64.2267 90.6816 63.8C91.4549 63.3733 92.7349 63.16 94.5216 63.16C96.3082 63.16 97.5749 63.3733 98.3216 63.8C99.0949 64.2267 99.5882 64.9467 99.8016 65.96C100.015 66.9467 100.122 68.5867 100.122 70.88C100.122 73.2 100.015 74.8533 99.8016 75.84C99.5882 76.8267 99.0949 77.5333 98.3216 77.96C97.5749 78.36 96.3082 78.56 94.5216 78.56ZM92.8416 91L110.842 63.48H113.402L95.4416 91H92.8416ZM94.5216 76.44C95.6682 76.44 96.4416 76.36 96.8416 76.2C97.2416 76.0133 97.5082 75.5733 97.6416 74.88C97.7749 74.16 97.8416 72.8267 97.8416 70.88C97.8416 68.88 97.7882 67.5467 97.6816 66.88C97.5749 66.1867 97.3082 65.7467 96.8816 65.56C96.4816 65.3733 95.6949 65.28 94.5216 65.28C93.3749 65.28 92.5882 65.3733 92.1616 65.56C91.7616 65.7467 91.4949 66.2 91.3616 66.92C91.2282 67.6133 91.1616 68.9333 91.1616 70.88C91.1616 72.8267 91.2282 74.16 91.3616 74.88C91.4949 75.5733 91.7616 76.0133 92.1616 76.2C92.5882 76.36 93.3749 76.44 94.5216 76.44ZM111.802 91.32C110.015 91.32 108.735 91.12 107.962 90.72C107.188 90.2933 106.682 89.5867 106.442 88.6C106.228 87.5867 106.122 85.9333 106.122 83.64C106.122 81.3733 106.228 79.7333 106.442 78.72C106.682 77.7067 107.188 76.9867 107.962 76.56C108.735 76.1333 110.015 75.92 111.802 75.92C113.588 75.92 114.868 76.1333 115.642 76.56C116.415 76.9867 116.908 77.7067 117.122 78.72C117.335 79.7067 117.442 81.3467 117.442 83.64C117.442 85.9333 117.335 87.5867 117.122 88.6C116.908 89.5867 116.415 90.2933 115.642 90.72C114.868 91.12 113.588 91.32 111.802 91.32ZM111.802 89.2C112.948 89.2 113.722 89.12 114.122 88.96C114.548 88.7733 114.815 88.3333 114.922 87.64C115.055 86.92 115.122 85.5867 115.122 83.64C115.122 81.64 115.068 80.3067 114.962 79.64C114.855 78.9467 114.588 78.5067 114.162 78.32C113.762 78.1333 112.975 78.04 111.802 78.04C110.655 78.04 109.868 78.1333 109.442 78.32C109.042 78.5067 108.775 78.96 108.642 79.68C108.535 80.3733 108.482 81.6933 108.482 83.64C108.482 85.5867 108.535 86.92 108.642 87.64C108.775 88.3333 109.042 88.7733 109.442 88.96C109.868 89.12 110.655 89.2 111.802 89.2Z" fill="black"/>
<defs>
<filter id="filter0_d_7_1184" x="75" y="0.261841" width="77" height="79.7675" filterUnits="userSpaceOnUse" color-interpolation-filters="sRGB">
<feFlood flood-opacity="0" result="BackgroundImageFix"/>
<feColorMatrix in="SourceAlpha" type="matrix" values="0 0 0 0 0 0 0 0 0 0 0 0 0 0 0 0 0 0 127 0" result="hardAlpha"/>
<feOffset dy="2"/>
<feGaussianBlur stdDeviation="1"/>
<feColorMatrix type="matrix" values="0 0 0 0 0 0 0 0 0 0 0 0 0 0 0 0 0 0 0.1 0"/>
<feBlend mode="normal" in2="BackgroundImageFix" result="effect1_dropShadow_7_1184"/>
<feBlend mode="normal" in="SourceGraphic" in2="effect1_dropShadow_7_1184" result="shape"/>
</filter>
</defs>
</svg>
