<svg width="19" height="12" viewBox="0 0 19 12" fill="none" xmlns="http://www.w3.org/2000/svg">
<path d="M17.6665 6.75C18.0807 6.75 18.4165 6.41421 18.4165 6C18.4165 5.58579 18.0807 5.25 17.6665 5.25L17.6665 6.75ZM0.469507 5.46967C0.176615 5.76256 0.176615 6.23744 0.469507 6.53033L5.24248 11.3033C5.53537 11.5962 6.01024 11.5962 6.30314 11.3033C6.59603 11.0104 6.59603 10.5355 6.30314 10.2426L2.0605 6L6.30314 1.75736C6.59603 1.46447 6.59603 0.989592 6.30314 0.696698C6.01025 0.403805 5.53537 0.403805 5.24248 0.696698L0.469507 5.46967ZM17.6665 5.25L0.999838 5.25L0.999838 6.75L17.6665 6.75L17.6665 5.25Z" fill="black"/>
</svg>
