<svg width="155" height="150" viewBox="0 0 155 150" fill="none" xmlns="http://www.w3.org/2000/svg">
<path fill-rule="evenodd" clip-rule="evenodd" d="M75 150C116.421 150 150 116.421 150 75C150 33.5786 116.421 0 75 0C33.5786 0 0 33.5786 0 75C0 116.421 33.5786 150 75 150ZM76 140C111.899 140 141 110.899 141 75C141 39.1015 111.899 10 76 10C40.1015 10 11 39.1015 11 75C11 110.899 40.1015 140 76 140Z" fill="white"/>
<g filter="url(#filter0_d_7_1194)">
<mask id="mask0_7_1194" style="mask-type:alpha" maskUnits="userSpaceOnUse" x="77" y="0" width="78" height="101">
<path d="M77 75.9928V0.212036C132.2 -3.56294 167 47.9709 150.5 100.97L77 75.9928Z" fill="#FFD027"/>
</mask>
<g mask="url(#mask0_7_1194)">
<path fill-rule="evenodd" clip-rule="evenodd" d="M75 150.225C116.421 150.225 150 116.647 150 75.2253C150 33.804 116.421 0.225342 75 0.225342C33.5786 0.225342 0 33.804 0 75.2253C0 116.647 33.5786 150.225 75 150.225ZM75 135.225C108.137 135.225 135 108.362 135 75.2253C135 42.0883 108.137 15.2253 75 15.2253C41.8629 15.2253 15 42.0883 15 75.2253C15 108.362 41.8629 135.225 75 135.225Z" fill="#FFD027"/>
</g>
</g>
<path d="M46.0483 91.32C44.8216 91.32 43.4349 91.2533 41.8883 91.12C40.3416 90.9867 39.0083 90.8133 37.8883 90.6V87.64C41.0349 87.96 43.6749 88.12 45.8083 88.12C47.6216 88.12 49.0216 88.0267 50.0083 87.84C50.9949 87.6267 51.7549 87.1867 52.2883 86.52C52.8216 85.8533 53.0883 84.84 53.0883 83.48C53.0883 81.6933 52.6883 80.4533 51.8883 79.76C51.1149 79.04 49.7549 78.68 47.8083 78.68H42.6483V75.48H47.8083C49.3816 75.48 50.6083 75.16 51.4883 74.52C52.3683 73.88 52.8083 72.6933 52.8083 70.96C52.8083 69.5733 52.5683 68.56 52.0883 67.92C51.6083 67.28 50.8616 66.8667 49.8483 66.68C48.8616 66.4667 47.3816 66.36 45.4083 66.36C44.3416 66.36 43.1149 66.4133 41.7283 66.52C40.3683 66.6267 39.1416 66.7467 38.0483 66.88V63.88C39.1149 63.6667 40.4083 63.4933 41.9283 63.36C43.4483 63.2267 44.8349 63.16 46.0883 63.16C48.6749 63.16 50.7016 63.4267 52.1683 63.96C53.6616 64.4667 54.7149 65.2533 55.3283 66.32C55.9683 67.36 56.2883 68.72 56.2883 70.4C56.2883 72.32 55.8883 73.8 55.0883 74.84C54.3149 75.8533 53.1416 76.5333 51.5683 76.88V77.04C53.2216 77.3333 54.4616 77.9733 55.2883 78.96C56.1416 79.9467 56.5683 81.5067 56.5683 83.64C56.5683 85.3467 56.2883 86.7467 55.7283 87.84C55.1683 88.9333 54.1149 89.7867 52.5683 90.4C51.0483 91.0133 48.8749 91.32 46.0483 91.32ZM72.9908 91.32C69.6041 91.32 67.2041 90.9733 65.7908 90.28C64.4041 89.56 63.5241 88.3067 63.1508 86.52C62.8041 84.7333 62.6308 81.64 62.6308 77.24C62.6308 72.84 62.8041 69.7467 63.1508 67.96C63.5241 66.1733 64.4041 64.9333 65.7908 64.24C67.2041 63.52 69.6041 63.16 72.9908 63.16C76.3774 63.16 78.7641 63.52 80.1508 64.24C81.5641 64.9333 82.4441 66.1867 82.7908 68C83.1641 69.7867 83.3508 72.8667 83.3508 77.24C83.3508 81.64 83.1641 84.7333 82.7908 86.52C82.4441 88.3067 81.5641 89.56 80.1508 90.28C78.7641 90.9733 76.3774 91.32 72.9908 91.32ZM72.9908 88.12C75.4441 88.12 77.0841 87.9467 77.9108 87.6C78.7641 87.2267 79.3108 86.3733 79.5508 85.04C79.7908 83.7067 79.9108 81.1067 79.9108 77.24C79.9108 73.3733 79.7908 70.7733 79.5508 69.44C79.3108 68.1067 78.7641 67.2667 77.9108 66.92C77.0841 66.5467 75.4441 66.36 72.9908 66.36C70.5374 66.36 68.8841 66.5467 68.0308 66.92C67.1774 67.2667 66.6308 68.1067 66.3908 69.44C66.1508 70.7733 66.0308 73.3733 66.0308 77.24C66.0308 81.1067 66.1508 83.7067 66.3908 85.04C66.6308 86.3733 67.1774 87.2267 68.0308 87.6C68.8841 87.9467 70.5374 88.12 72.9908 88.12ZM94.3458 78.56C92.5591 78.56 91.2791 78.36 90.5058 77.96C89.7324 77.5333 89.2258 76.8267 88.9858 75.84C88.7724 74.8267 88.6658 73.1733 88.6658 70.88C88.6658 68.6133 88.7724 66.9733 88.9858 65.96C89.2258 64.9467 89.7324 64.2267 90.5058 63.8C91.2791 63.3733 92.5591 63.16 94.3458 63.16C96.1324 63.16 97.3991 63.3733 98.1458 63.8C98.9191 64.2267 99.4124 64.9467 99.6258 65.96C99.8391 66.9467 99.9458 68.5867 99.9458 70.88C99.9458 73.2 99.8391 74.8533 99.6258 75.84C99.4124 76.8267 98.9191 77.5333 98.1458 77.96C97.3991 78.36 96.1324 78.56 94.3458 78.56ZM92.6658 91L110.666 63.48H113.226L95.2658 91H92.6658ZM94.3458 76.44C95.4924 76.44 96.2658 76.36 96.6658 76.2C97.0658 76.0133 97.3324 75.5733 97.4658 74.88C97.5991 74.16 97.6658 72.8267 97.6658 70.88C97.6658 68.88 97.6124 67.5467 97.5058 66.88C97.3991 66.1867 97.1324 65.7467 96.7058 65.56C96.3058 65.3733 95.5191 65.28 94.3458 65.28C93.1991 65.28 92.4124 65.3733 91.9858 65.56C91.5858 65.7467 91.3191 66.2 91.1858 66.92C91.0524 67.6133 90.9858 68.9333 90.9858 70.88C90.9858 72.8267 91.0524 74.16 91.1858 74.88C91.3191 75.5733 91.5858 76.0133 91.9858 76.2C92.4124 76.36 93.1991 76.44 94.3458 76.44ZM111.626 91.32C109.839 91.32 108.559 91.12 107.786 90.72C107.012 90.2933 106.506 89.5867 106.266 88.6C106.052 87.5867 105.946 85.9333 105.946 83.64C105.946 81.3733 106.052 79.7333 106.266 78.72C106.506 77.7067 107.012 76.9867 107.786 76.56C108.559 76.1333 109.839 75.92 111.626 75.92C113.412 75.92 114.692 76.1333 115.466 76.56C116.239 76.9867 116.732 77.7067 116.946 78.72C117.159 79.7067 117.266 81.3467 117.266 83.64C117.266 85.9333 117.159 87.5867 116.946 88.6C116.732 89.5867 116.239 90.2933 115.466 90.72C114.692 91.12 113.412 91.32 111.626 91.32ZM111.626 89.2C112.772 89.2 113.546 89.12 113.946 88.96C114.372 88.7733 114.639 88.3333 114.746 87.64C114.879 86.92 114.946 85.5867 114.946 83.64C114.946 81.64 114.892 80.3067 114.786 79.64C114.679 78.9467 114.412 78.5067 113.986 78.32C113.586 78.1333 112.799 78.04 111.626 78.04C110.479 78.04 109.692 78.1333 109.266 78.32C108.866 78.5067 108.599 78.96 108.466 79.68C108.359 80.3733 108.306 81.6933 108.306 83.64C108.306 85.5867 108.359 86.92 108.466 87.64C108.599 88.3333 108.866 88.7733 109.266 88.96C109.692 89.12 110.479 89.2 111.626 89.2Z" fill="black"/>
<defs>
<filter id="filter0_d_7_1194" x="75" y="0.225342" width="77" height="104.745" filterUnits="userSpaceOnUse" color-interpolation-filters="sRGB">
<feFlood flood-opacity="0" result="BackgroundImageFix"/>
<feColorMatrix in="SourceAlpha" type="matrix" values="0 0 0 0 0 0 0 0 0 0 0 0 0 0 0 0 0 0 127 0" result="hardAlpha"/>
<feOffset dy="2"/>
<feGaussianBlur stdDeviation="1"/>
<feColorMatrix type="matrix" values="0 0 0 0 0 0 0 0 0 0 0 0 0 0 0 0 0 0 0.1 0"/>
<feBlend mode="normal" in2="BackgroundImageFix" result="effect1_dropShadow_7_1194"/>
<feBlend mode="normal" in="SourceGraphic" in2="effect1_dropShadow_7_1194" result="shape"/>
</filter>
</defs>
</svg>
