<svg width="156" height="150" viewBox="0 0 156 150" fill="none" xmlns="http://www.w3.org/2000/svg">
<path fill-rule="evenodd" clip-rule="evenodd" d="M75 150C116.421 150 150 116.421 150 75C150 33.5786 116.421 0 75 0C33.5786 0 0 33.5786 0 75C0 116.421 33.5786 150 75 150ZM75 140C110.899 140 140 110.899 140 75C140 39.1015 110.899 10 75 10C39.1015 10 10 39.1015 10 75C10 110.899 39.1015 140 75 140Z" fill="white"/>
<g filter="url(#filter0_d_7_1204)">
<mask id="mask0_7_1204" style="mask-type:alpha" maskUnits="userSpaceOnUse" x="77" y="0" width="79" height="77">
<path d="M77 76.0002V0.21947C132.2 -3.55551 155.5 45.4707 155.5 76.0004L77 76.0002Z" fill="#FFD027"/>
</mask>
<g mask="url(#mask0_7_1204)">
<path fill-rule="evenodd" clip-rule="evenodd" d="M75 150.233C116.421 150.233 150 116.654 150 75.2328C150 33.8114 116.421 0.232788 75 0.232788C33.5786 0.232788 0 33.8114 0 75.2328C0 116.654 33.5786 150.233 75 150.233ZM75 135.233C108.137 135.233 135 108.37 135 75.2328C135 42.0957 108.137 15.2328 75 15.2328C41.8629 15.2328 15 42.0957 15 75.2328C15 108.37 41.8629 135.233 75 135.233Z" fill="#FFD027"/>
</g>
</g>
<path d="M42.4677 88.76H57.9077V92H39.1477V88.72C39.1477 86.4267 39.2277 84.76 39.3877 83.72C39.5743 82.6533 39.9877 81.7867 40.6277 81.12C41.2677 80.4267 42.3343 79.76 43.8277 79.12C46.7077 77.92 49.1343 76.92 51.1077 76.12C52.0943 75.72 52.8143 75.3467 53.2677 75C53.7477 74.6267 54.0677 74.1867 54.2277 73.68C54.4143 73.1733 54.5077 72.48 54.5077 71.6C54.5077 70.3467 54.3077 69.4267 53.9077 68.84C53.5343 68.2533 52.881 67.8667 51.9477 67.68C51.041 67.4667 49.6277 67.36 47.7077 67.36C45.601 67.36 42.9343 67.5333 39.7077 67.88V64.88C40.8277 64.6667 42.241 64.4933 43.9477 64.36C45.6543 64.2267 47.2543 64.16 48.7477 64.16C50.7477 64.16 52.3877 64.32 53.6677 64.64C54.9477 64.9333 55.9743 65.6 56.7477 66.64C57.521 67.6533 57.9077 69.1867 57.9077 71.24C57.9077 72.8133 57.7477 74.08 57.4277 75.04C57.1077 76 56.5877 76.7733 55.8677 77.36C55.1743 77.92 54.201 78.4667 52.9477 79L44.6677 82.4C43.7343 82.7467 43.1343 83.2133 42.8677 83.8C42.7077 84.1733 42.601 84.6 42.5477 85.08C42.4943 85.56 42.4677 86.2 42.4677 87V88.76ZM64.0417 88.64C67.2951 88.96 69.9484 89.12 72.0017 89.12C74.0284 89.12 75.5484 88.9733 76.5617 88.68C77.6017 88.36 78.3084 87.8267 78.6817 87.08C79.0817 86.3333 79.2817 85.2533 79.2817 83.84C79.2817 82.2933 79.0684 81.1733 78.6417 80.48C78.2417 79.7867 77.5084 79.3333 76.4417 79.12C75.4017 78.88 73.7484 78.76 71.4817 78.76C69.5617 78.76 67.1884 78.9333 64.3617 79.28V64.48H80.7217V67.72H67.5217V75.92C69.4417 75.68 71.4817 75.56 73.6417 75.56C76.1751 75.56 78.0951 75.8533 79.4017 76.44C80.7084 77 81.5884 77.84 82.0417 78.96C82.5217 80.0533 82.7617 81.5467 82.7617 83.44C82.7617 85.7067 82.4684 87.4667 81.8817 88.72C81.3217 89.9733 80.2951 90.8933 78.8017 91.48C77.3084 92.04 75.1351 92.32 72.2817 92.32C71.0017 92.32 69.5751 92.2533 68.0017 92.12C66.4551 91.9867 65.1351 91.8133 64.0417 91.6V88.64ZM93.4864 79.56C91.6997 79.56 90.4197 79.36 89.6464 78.96C88.8731 78.5333 88.3664 77.8267 88.1264 76.84C87.9131 75.8267 87.8064 74.1733 87.8064 71.88C87.8064 69.6133 87.9131 67.9733 88.1264 66.96C88.3664 65.9467 88.8731 65.2267 89.6464 64.8C90.4197 64.3733 91.6997 64.16 93.4864 64.16C95.2731 64.16 96.5397 64.3733 97.2864 64.8C98.0597 65.2267 98.5531 65.9467 98.7664 66.96C98.9797 67.9467 99.0864 69.5867 99.0864 71.88C99.0864 74.2 98.9797 75.8533 98.7664 76.84C98.5531 77.8267 98.0597 78.5333 97.2864 78.96C96.5397 79.36 95.2731 79.56 93.4864 79.56ZM91.8064 92L109.806 64.48H112.366L94.4064 92H91.8064ZM93.4864 77.44C94.6331 77.44 95.4064 77.36 95.8064 77.2C96.2064 77.0133 96.4731 76.5733 96.6064 75.88C96.7397 75.16 96.8064 73.8267 96.8064 71.88C96.8064 69.88 96.7531 68.5467 96.6464 67.88C96.5397 67.1867 96.2731 66.7467 95.8464 66.56C95.4464 66.3733 94.6597 66.28 93.4864 66.28C92.3397 66.28 91.5531 66.3733 91.1264 66.56C90.7264 66.7467 90.4597 67.2 90.3264 67.92C90.1931 68.6133 90.1264 69.9333 90.1264 71.88C90.1264 73.8267 90.1931 75.16 90.3264 75.88C90.4597 76.5733 90.7264 77.0133 91.1264 77.2C91.5531 77.36 92.3397 77.44 93.4864 77.44ZM110.766 92.32C108.98 92.32 107.7 92.12 106.926 91.72C106.153 91.2933 105.646 90.5867 105.406 89.6C105.193 88.5867 105.086 86.9333 105.086 84.64C105.086 82.3733 105.193 80.7333 105.406 79.72C105.646 78.7067 106.153 77.9867 106.926 77.56C107.7 77.1333 108.98 76.92 110.766 76.92C112.553 76.92 113.833 77.1333 114.606 77.56C115.38 77.9867 115.873 78.7067 116.086 79.72C116.3 80.7067 116.406 82.3467 116.406 84.64C116.406 86.9333 116.3 88.5867 116.086 89.6C115.873 90.5867 115.38 91.2933 114.606 91.72C113.833 92.12 112.553 92.32 110.766 92.32ZM110.766 90.2C111.913 90.2 112.686 90.12 113.086 89.96C113.513 89.7733 113.78 89.3333 113.886 88.64C114.02 87.92 114.086 86.5867 114.086 84.64C114.086 82.64 114.033 81.3067 113.926 80.64C113.82 79.9467 113.553 79.5067 113.126 79.32C112.726 79.1333 111.94 79.04 110.766 79.04C109.62 79.04 108.833 79.1333 108.406 79.32C108.006 79.5067 107.74 79.96 107.606 80.68C107.5 81.3733 107.446 82.6933 107.446 84.64C107.446 86.5867 107.5 87.92 107.606 88.64C107.74 89.3333 108.006 89.7733 108.406 89.96C108.833 90.12 109.62 90.2 110.766 90.2Z" fill="black"/>
<defs>
<filter id="filter0_d_7_1204" x="75" y="0.232788" width="77" height="79.7676" filterUnits="userSpaceOnUse" color-interpolation-filters="sRGB">
<feFlood flood-opacity="0" result="BackgroundImageFix"/>
<feColorMatrix in="SourceAlpha" type="matrix" values="0 0 0 0 0 0 0 0 0 0 0 0 0 0 0 0 0 0 127 0" result="hardAlpha"/>
<feOffset dy="2"/>
<feGaussianBlur stdDeviation="1"/>
<feColorMatrix type="matrix" values="0 0 0 0 0 0 0 0 0 0 0 0 0 0 0 0 0 0 0.1 0"/>
<feBlend mode="normal" in2="BackgroundImageFix" result="effect1_dropShadow_7_1204"/>
<feBlend mode="normal" in="SourceGraphic" in2="effect1_dropShadow_7_1204" result="shape"/>
</filter>
</defs>
</svg>
