<svg width="51" height="39" viewBox="0 0 51 39" fill="none" xmlns="http://www.w3.org/2000/svg">
<path d="M29.36 38.52V25.4C29.36 20.3867 29.5733 16.3333 30 13.24C30.5333 10.04 31.4933 7.53333 32.88 5.71999C34.3733 3.90666 36.5067 2.68 39.28 2.03999C42.0533 1.29333 45.7333 0.919996 50.32 0.919996V8.28C47.6533 8.28 45.5733 8.54666 44.08 9.08C42.5867 9.50666 41.5733 10.4667 41.04 11.96C40.5067 13.4533 40.24 15.5333 40.24 18.2V20.92H47.76V38.52H29.36ZM0.24 38.52V25.4C0.24 20.3867 0.453334 16.3333 0.880001 13.24C1.41333 10.04 2.37333 7.53333 3.76 5.71999C5.25333 3.90666 7.33333 2.68 10 2.03999C12.7733 1.29333 16.5067 0.919996 21.2 0.919996V8.28C18.5333 8.28 16.4533 8.54666 14.96 9.08C13.4667 9.50666 12.4533 10.4667 11.92 11.96C11.3867 13.4533 11.12 15.5333 11.12 18.2V20.92H18.64V38.52H0.24Z" fill="black"/>
</svg>
