<svg width="20" height="12" viewBox="0 0 20 12" fill="none" xmlns="http://www.w3.org/2000/svg">
<path d="M1.66667 5.25C1.25245 5.25 0.916668 5.58579 0.916668 6C0.916668 6.41421 1.25245 6.75 1.66667 6.75L1.66667 5.25ZM18.8637 6.53033C19.1566 6.23744 19.1566 5.76256 18.8637 5.46967L14.0907 0.696699C13.7978 0.403805 13.3229 0.403805 13.03 0.696699C12.7371 0.989592 12.7371 1.46447 13.03 1.75736L17.2727 6L13.03 10.2426C12.7371 10.5355 12.7371 11.0104 13.03 11.3033C13.3229 11.5962 13.7978 11.5962 14.0907 11.3033L18.8637 6.53033ZM1.66667 6.75L18.3333 6.75L18.3333 5.25L1.66667 5.25L1.66667 6.75Z" fill="white"/>
</svg>
