<svg width="60" height="60" viewBox="0 0 60 60" fill="none" xmlns="http://www.w3.org/2000/svg">
<path d="M20 30V28.3333C19.558 28.3333 19.134 28.5089 18.8215 28.8215C18.5089 29.134 18.3333 29.558 18.3333 30H20ZM40 30H41.6667C41.6667 29.558 41.4911 29.134 41.1785 28.8215C40.866 28.5089 40.442 28.3333 40 28.3333V30ZM40 28.3333H20V31.6667H40V28.3333ZM30 41.6667C36.5667 41.6667 41.6667 36.5667 41.6667 30H38.3333C38.3333 34.7267 34.7267 38.3333 30 38.3333V41.6667ZM18.3333 30C18.3333 36.5667 23.4333 41.6667 30 41.6667V38.3333C25.2733 38.3333 21.6667 34.7267 21.6667 30H18.3333ZM30 51.6667C24.2536 51.6667 18.7426 49.3839 14.6794 45.3206C10.6161 41.2574 8.33333 35.7464 8.33333 30H5C5 36.6304 7.63392 42.9893 12.3223 47.6777C17.0107 52.3661 23.3696 55 30 55V51.6667ZM51.6667 30C51.6667 32.8453 51.1062 35.6628 50.0174 38.2915C48.9285 40.9202 47.3326 43.3087 45.3206 45.3206C43.3087 47.3326 40.9202 48.9285 38.2915 50.0174C35.6628 51.1062 32.8453 51.6667 30 51.6667V55C36.6304 55 42.9893 52.3661 47.6777 47.6777C52.3661 42.9893 55 36.6304 55 30H51.6667ZM30 8.33333C32.8453 8.33333 35.6628 8.89376 38.2915 9.98261C40.9202 11.0715 43.3087 12.6674 45.3206 14.6794C47.3326 16.6913 48.9285 19.0798 50.0174 21.7085C51.1062 24.3372 51.6667 27.1547 51.6667 30H55C55 23.3696 52.3661 17.0107 47.6777 12.3223C42.9893 7.63392 36.6304 5 30 5V8.33333ZM30 5C23.3696 5 17.0107 7.63392 12.3223 12.3223C7.63392 17.0107 5 23.3696 5 30H8.33333C8.33333 24.2536 10.6161 18.7426 14.6794 14.6794C18.7426 10.6161 24.2536 8.33333 30 8.33333V5ZM18.3333 25H21.6667V21.6667H18.3333V25ZM38.3333 25H41.6667V21.6667H38.3333V25Z" fill="black"/>
</svg>
