<svg width="41" height="47" viewBox="0 0 41 47" fill="none" xmlns="http://www.w3.org/2000/svg">
<rect x="3" y="11" width="35" height="25" fill="white"/>
<rect x="3" y="31" width="35" height="6" fill="white"/>
<rect x="16" y="3" width="9" height="10" fill="white"/>
<rect x="7" y="8" width="27" height="9" fill="white"/>
<rect x="11" y="6" width="18" height="8" fill="white"/>
<rect x="17" y="31" width="8" height="13" fill="white"/>
<rect x="9" y="24" width="6" height="15" fill="white"/>
<rect x="13" y="26" width="12" height="16" fill="white"/>
<rect x="21" y="26" width="9" height="15" fill="white"/>
<rect x="27" y="31" width="6" height="7" fill="white"/>
<path d="M3.04574 11.5972L19.757 2.52438C20.3585 2.19782 21.0852 2.20152 21.6834 2.53418L37.9721 11.5933C38.6066 11.9461 39 12.6151 39 13.3411V33.4312C39 34.15 38.6142 34.8135 37.9896 35.1692L21.7006 44.4433C21.0935 44.789 20.3501 44.7928 19.7395 44.4534L3.02839 35.1655C2.39364 34.8127 2 34.1435 2 33.4173V13.3549C2 12.6216 2.4013 11.9471 3.04574 11.5972Z" stroke="#B3B3B3" stroke-width="3"/>
</svg>
