<svg width="20" height="12" viewBox="0 0 20 12" fill="none" xmlns="http://www.w3.org/2000/svg">
<path d="M1.66699 5.25C1.25278 5.25 0.916992 5.58579 0.916992 6C0.916992 6.41421 1.25278 6.75 1.66699 6.75L1.66699 5.25ZM18.864 6.53033C19.1569 6.23744 19.1569 5.76256 18.864 5.46967L14.091 0.696699C13.7981 0.403805 13.3233 0.403805 13.0304 0.696699C12.7375 0.989592 12.7375 1.46447 13.0304 1.75736L17.273 6L13.0304 10.2426C12.7375 10.5355 12.7375 11.0104 13.0304 11.3033C13.3233 11.5962 13.7981 11.5962 14.091 11.3033L18.864 6.53033ZM1.66699 6.75L18.3337 6.75L18.3337 5.25L1.66699 5.25L1.66699 6.75Z" fill="black"/>
</svg>
