<svg width="60" height="60" viewBox="0 0 60 60" fill="none" xmlns="http://www.w3.org/2000/svg">
<path d="M23.024 51.5602L33.8204 54.4202C34.5896 54.6239 35.3874 54.1685 35.5936 53.408C35.7996 52.6477 35.339 51.8588 34.5699 51.6551L23.7735 48.7951C23.0043 48.5914 22.2065 49.0467 22.0003 49.8072C21.7941 50.5676 22.2549 51.3564 23.024 51.5602ZM28.0228 18.7587C28.1195 20.0598 28.864 20.7932 30.0198 20.7746C31.1705 20.7563 32.008 19.9766 31.9804 18.7893C31.9536 17.634 31.221 16.8752 29.9746 16.8886C28.7291 16.9019 28.1117 17.6295 28.0228 18.7587ZM14.1817 14.3736C18.4767 7.36056 26.9833 3.95317 34.8862 6.23591C41.8024 8.23373 46.3118 12.7484 47.9515 19.6918C49.5745 26.5641 47.5543 32.4751 42.4418 37.4254C41.2428 38.5864 40.1403 39.9927 39.4644 41.4933C38.7868 42.9975 38.5695 43.4678 36.919 43.0729C34.6266 42.5245 32.365 41.851 30.0731 41.3005C28.8981 41.0183 28.4517 40.3698 28.4595 39.1988C28.4909 34.4727 28.4803 29.7463 28.4629 25.0201C28.4592 23.9503 28.7992 23.0694 29.9635 23.0426C31.1421 23.0156 31.5029 23.867 31.4931 24.9577C31.4658 28.0218 31.4848 31.0862 31.4851 34.1504C31.4852 39.0799 31.4851 39.0799 36.3877 39.7881C38.2516 37.6768 39.9488 35.7789 41.6188 33.8577C47.6127 26.9627 46.5166 16.7702 39.0358 11.4911C33.6613 7.69837 27.888 7.48732 22.1319 10.6897C16.7872 13.6633 13.8796 19.7896 14.6503 25.7159C15.1651 29.6748 17.0772 32.835 19.9134 35.5516C21.6251 37.1911 23.1848 38.9563 23.7462 41.3269C24.0089 42.4357 24.6377 42.9857 25.7242 43.2504C25.5211 43.0639 37.4348 46.3641 37.4348 46.3641C38.1885 46.5637 38.6399 47.3367 38.4379 48.0818L38.4068 48.197C38.2048 48.942 37.423 49.3884 36.6693 49.1888C36.6693 49.1888 22.9995 45.5572 22.8203 45.507C21.5544 45.1615 20.8654 44.2705 20.8365 42.9988C20.7934 41.1004 19.959 39.6227 18.6012 38.3613C17.8743 37.6859 17.1506 37.0046 16.4665 36.2876C10.8203 30.3672 9.88852 21.3841 14.1817 14.3735V14.3736Z" fill="black"/>
</svg>
