<svg width="60" height="60" viewBox="0 0 60 60" fill="none" xmlns="http://www.w3.org/2000/svg">
<path d="M38.2118 20.9959C38.5838 20.4154 38.775 19.7894 38.775 19.125C38.775 18.0708 38.4266 17.1955 37.7053 16.5454L37.7049 16.545C36.9929 15.9052 36.0789 15.6 35 15.6C34.0759 15.6 33.248 15.8909 32.5314 16.4686L32.5314 16.4687C31.8996 16.9783 31.4016 17.697 31.0243 18.6011L28.375 17.5218C28.8661 16.1767 29.6652 15.092 30.7732 14.2569L30.7734 14.2568C31.9688 13.3548 33.3718 12.9 35 12.9C37.0467 12.9 38.6625 13.4701 39.8864 14.5789L39.8868 14.5793C41.1108 15.6852 41.725 17.1055 41.725 18.875C41.725 19.8628 41.5277 20.7008 41.1482 21.4021L41.148 21.4025C40.7603 22.1206 39.9616 23.0977 38.7172 24.3422C37.7956 25.2637 37.1665 26.0465 36.8846 26.6798L36.8844 26.6802C36.631 27.2513 36.5048 28.0691 36.4797 29.1H33.5274C33.537 28.3274 33.5748 27.6727 33.6396 27.1334C33.7161 26.4976 33.8275 26.0473 33.9591 25.7582L33.9592 25.7578C34.2315 25.1579 35.0125 24.2602 36.389 23.0505L36.3949 23.0453L36.4005 23.04C37.2407 22.2418 37.852 21.5588 38.2118 20.9959ZM38.2118 20.9959L37.875 20.78M38.2118 20.9959C38.2119 20.9957 38.212 20.9955 38.2121 20.9954L37.875 20.78M37.875 20.78C37.5417 21.3017 36.9583 21.9583 36.125 22.75M37.875 20.78C38.2083 20.26 38.375 19.7083 38.375 19.125C38.375 18.1667 38.0625 17.4058 37.4375 16.8425C36.8125 16.2808 36 16 35 16C34.1667 16 33.4275 16.26 32.7825 16.78L36.125 22.75M36.125 22.75C34.75 23.9583 33.9067 24.9058 33.595 25.5925L36.125 22.75ZM19.6 40V40.4H20H50H50.4V40V10V9.6H50H20H19.6V10V40ZM10 50.4H44.6V54.6H5.4V15.4H9.6V50V50.4H10ZM36.5622 36.4372C36.1122 36.8854 35.5977 37.1 35 37.1C34.4022 37.1 33.8885 36.8853 33.4403 36.4372C32.9902 35.987 32.775 35.4724 32.775 34.875C32.775 34.2776 32.9902 33.763 33.4403 33.3128C33.8885 32.8647 34.4022 32.65 35 32.65C35.5977 32.65 36.1122 32.8646 36.5622 33.3128C37.0104 33.7628 37.225 34.2773 37.225 34.875C37.225 35.4727 37.0104 35.9872 36.5622 36.4372ZM15.4 44.6V5.4H54.6V44.6H15.4Z" fill="black" stroke="white" stroke-width="0.8"/>
</svg>
