<svg width="60" height="60" viewBox="0 0 60 60" fill="none" xmlns="http://www.w3.org/2000/svg">
<path d="M50.4 12.5V12.1H50H10H9.6V12.5V47.5V47.9H10H50H50.4V47.5V12.5ZM10 7.9H50C52.5541 7.9 54.6 9.94591 54.6 12.5V47.5C54.6 50.0541 52.5541 52.1 50 52.1H10C7.44591 52.1 5.4 50.0541 5.4 47.5V12.5C5.4 9.94591 7.44591 7.9 10 7.9ZM15.4 42.1V37.9H44.6V42.1H15.4ZM15.4 32.1V17.9H24.6V32.1H15.4ZM44.6 17.9V22.1H30.4V17.9H44.6ZM30.4 32.1V27.9H44.6V32.1H30.4Z" fill="black" stroke="white" stroke-width="0.8"/>
</svg>
