<svg width="60" height="60" viewBox="0 0 60 60" fill="none" xmlns="http://www.w3.org/2000/svg">
<path d="M40 5C41.3261 5 42.5979 5.52678 43.5355 6.46447C44.4732 7.40215 45 8.67392 45 10H10V37.9425C8.67392 37.9425 7.40215 37.4157 6.46447 36.478C5.52678 35.5404 5 34.2686 5 32.9425V10C5 8.67392 5.52678 7.40215 6.46447 6.46447C7.40215 5.52678 8.67392 5 10 5H40Z" fill="black" stroke="white" stroke-width="1.5"/>
<path d="M35 55L28.3325 47.9425H20C18.6739 47.9425 17.4021 47.4157 16.4645 46.478C15.5268 45.5404 15 44.2686 15 42.9425V20C15 18.6739 15.5268 17.4021 16.4645 16.4645C17.4021 15.5268 18.6739 15 20 15H50C51.3261 15 52.5979 15.5268 53.5355 16.4645C54.4732 17.4021 55 18.6739 55 20V42.9425C55 44.2686 54.4732 45.5404 53.5355 46.478C52.5979 47.4157 51.3261 47.9425 50 47.9425H41.6675L35 55ZM39.5125 42.9425H50V20H20V42.9425H30.4875L35 47.7175L39.5125 42.9425Z" fill="black" stroke="white" stroke-width="1.5"/>
</svg>
