<svg width="24" height="24" viewBox="0 0 24 24" fill="none" xmlns="http://www.w3.org/2000/svg">
<path d="M11.6016 6C11.8516 6 12.0651 6.08854 12.2422 6.26562C12.4193 6.44271 12.5078 6.65625 12.5078 6.90625C12.5078 7.15104 12.4193 7.36198 12.2422 7.53906C12.0651 7.71615 11.8516 7.80469 11.6016 7.80469C11.3568 7.80469 11.1458 7.71615 10.9688 7.53906C10.7917 7.36198 10.7031 7.15104 10.7031 6.90625C10.7031 6.65625 10.7917 6.44271 10.9688 6.26562C11.1458 6.08854 11.3568 6 11.6016 6ZM11.0547 9.5H12.1562V18H11.0547V9.5Z" fill="#FF0000"/>
<circle cx="12" cy="12" r="11.5" stroke="#FF0000"/>
</svg>
