<svg width="60" height="60" viewBox="0 0 60 60" fill="none" xmlns="http://www.w3.org/2000/svg">
<path d="M41.5187 10.7812V10.9812H41.7188H51.5625C52.4892 10.9812 53.2375 11.7296 53.2375 12.6562V51.5625C53.2375 52.4892 52.4892 53.2375 51.5625 53.2375H8.4375C7.51085 53.2375 6.7625 52.4892 6.7625 51.5625V12.6562C6.7625 11.7296 7.51085 10.9812 8.4375 10.9812H18.2812H18.4812V10.7812V7.03125C18.4812 6.88389 18.6026 6.7625 18.75 6.7625H22.0312C22.1786 6.7625 22.3 6.88389 22.3 7.03125V10.7812V10.9812H22.5H37.5H37.7V10.7812V7.03125C37.7 6.88389 37.8214 6.7625 37.9688 6.7625H41.25C41.3974 6.7625 41.5187 6.88389 41.5187 7.03125V10.7812ZM49.2188 49.4188H49.4188V49.2188V26.9531V26.7531H49.2188H10.7812H10.5813V26.9531V49.2188V49.4188H10.7812H49.2188ZM10.5813 22.9688V23.1688H10.7812H49.2188H49.4188V22.9688V15V14.8H49.2188H41.7188H41.5187V15V17.8125C41.5187 17.9599 41.3974 18.0813 41.25 18.0813H37.9688C37.8214 18.0813 37.7 17.9599 37.7 17.8125V15V14.8H37.5H22.5H22.3V15V17.8125C22.3 17.9599 22.1786 18.0813 22.0312 18.0813H18.75C18.6026 18.0813 18.4812 17.9599 18.4812 17.8125V15V14.8H18.2812H10.7812H10.5813V15V22.9688Z" fill="black" stroke="white" stroke-width="0.4"/>
</svg>
