<svg width="197" height="32" viewBox="0 0 197 32" fill="none" xmlns="http://www.w3.org/2000/svg">
<rect x="89" width="108" height="32"/>
<path opacity="0.5" d="M1.4 21V11.368H5.614C6.23 11.368 6.72 11.4473 7.084 11.606C7.45733 11.7553 7.73267 11.9653 7.91 12.236C8.09667 12.5067 8.22267 12.8287 8.288 13.202C8.35333 13.566 8.386 13.9673 8.386 14.406C8.386 14.826 8.35333 15.2227 8.288 15.596C8.232 15.96 8.11067 16.282 7.924 16.562C7.73733 16.842 7.45733 17.0613 7.084 17.22C6.71067 17.3787 6.21133 17.458 5.586 17.458H2.604V21H1.4ZM2.604 16.408H5.194C5.65133 16.408 6.01067 16.3707 6.272 16.296C6.54267 16.2213 6.74333 16.1047 6.874 15.946C7.00467 15.778 7.08867 15.568 7.126 15.316C7.16333 15.064 7.182 14.7607 7.182 14.406C7.182 14.0513 7.16333 13.748 7.126 13.496C7.098 13.244 7.01867 13.0387 6.888 12.88C6.76667 12.7213 6.57067 12.6047 6.3 12.53C6.03867 12.446 5.67933 12.404 5.222 12.404H2.604V16.408ZM13.1648 21.112C12.5768 21.112 12.0868 21.0747 11.6948 21C11.3121 20.9347 11.0088 20.8227 10.7848 20.664C10.5608 20.5053 10.3928 20.286 10.2808 20.006C10.1781 19.726 10.1128 19.376 10.0848 18.956C10.0568 18.5267 10.0428 18.018 10.0428 17.43C10.0428 16.842 10.0568 16.338 10.0848 15.918C10.1128 15.4887 10.1781 15.134 10.2808 14.854C10.3928 14.574 10.5608 14.3547 10.7848 14.196C11.0088 14.0373 11.3121 13.9253 11.6948 13.86C12.0868 13.7853 12.5768 13.748 13.1648 13.748C13.7621 13.748 14.2521 13.7853 14.6348 13.86C15.0175 13.9253 15.3208 14.0373 15.5448 14.196C15.7781 14.3547 15.9461 14.574 16.0488 14.854C16.1608 15.134 16.2308 15.4887 16.2588 15.918C16.2868 16.338 16.3008 16.842 16.3008 17.43C16.3008 18.018 16.2868 18.5267 16.2588 18.956C16.2308 19.376 16.1608 19.726 16.0488 20.006C15.9461 20.286 15.7781 20.5053 15.5448 20.664C15.3208 20.8227 15.0175 20.9347 14.6348 21C14.2521 21.0747 13.7621 21.112 13.1648 21.112ZM13.1648 20.146C13.6688 20.146 14.0561 20.1133 14.3268 20.048C14.5975 19.9827 14.7888 19.8567 14.9008 19.67C15.0221 19.4833 15.0921 19.2127 15.1108 18.858C15.1388 18.494 15.1528 18.018 15.1528 17.43C15.1528 16.842 15.1388 16.3707 15.1108 16.016C15.0921 15.652 15.0221 15.3767 14.9008 15.19C14.7888 15.0033 14.5975 14.8773 14.3268 14.812C14.0561 14.7467 13.6688 14.714 13.1648 14.714C12.6701 14.714 12.2828 14.7467 12.0028 14.812C11.7321 14.8773 11.5408 15.0033 11.4288 15.19C11.3168 15.3767 11.2468 15.652 11.2188 16.016C11.1908 16.3707 11.1768 16.842 11.1768 17.43C11.1768 18.018 11.1908 18.494 11.2188 18.858C11.2468 19.2127 11.3168 19.4833 11.4288 19.67C11.5408 19.8567 11.7321 19.9827 12.0028 20.048C12.2828 20.1133 12.6701 20.146 13.1648 20.146ZM19.7922 21L17.5102 13.86H18.7002L20.4362 19.614H20.5342L22.2702 13.86H23.3482L25.0842 19.614H25.1962L26.9182 13.86H28.0662L25.7842 21H24.4682L22.8302 15.736H22.7322L21.1082 21H19.7922ZM32.4988 21.112C31.9201 21.112 31.4348 21.0747 31.0428 21C30.6601 20.9253 30.3521 20.804 30.1188 20.636C29.8855 20.4587 29.7081 20.23 29.5868 19.95C29.4655 19.6607 29.3861 19.3107 29.3488 18.9C29.3115 18.4893 29.2928 18.004 29.2928 17.444C29.2928 16.7813 29.3208 16.2167 29.3768 15.75C29.4328 15.274 29.5588 14.8913 29.7548 14.602C29.9601 14.3033 30.2775 14.0887 30.7068 13.958C31.1361 13.818 31.7148 13.748 32.4428 13.748C32.9935 13.748 33.4415 13.79 33.7868 13.874C34.1415 13.958 34.4215 14.0887 34.6268 14.266C34.8321 14.4433 34.9815 14.6813 35.0748 14.98C35.1775 15.2693 35.2428 15.6193 35.2708 16.03C35.2988 16.4313 35.3128 16.898 35.3128 17.43V17.808H30.4268C30.4268 18.2933 30.4501 18.69 30.4968 18.998C30.5435 19.306 30.6368 19.544 30.7768 19.712C30.9261 19.88 31.1548 19.9967 31.4628 20.062C31.7801 20.1273 32.2095 20.16 32.7508 20.16C32.9748 20.16 33.2221 20.1553 33.4928 20.146C33.7635 20.1273 34.0341 20.104 34.3048 20.076C34.5755 20.048 34.8181 20.02 35.0328 19.992V20.916C34.8368 20.9533 34.5941 20.986 34.3048 21.014C34.0248 21.042 33.7261 21.0653 33.4088 21.084C33.1008 21.1027 32.7975 21.112 32.4988 21.112ZM34.2068 17.234V16.856C34.2068 16.3707 34.1788 15.988 34.1228 15.708C34.0668 15.4187 33.9688 15.204 33.8288 15.064C33.6981 14.9147 33.5161 14.8167 33.2828 14.77C33.0495 14.7233 32.7601 14.7 32.4148 14.7C31.9668 14.7 31.6121 14.7327 31.3508 14.798C31.0895 14.854 30.8935 14.9613 30.7628 15.12C30.6321 15.2787 30.5435 15.5073 30.4968 15.806C30.4501 16.1047 30.4268 16.5013 30.4268 16.996H34.4728L34.2068 17.234ZM37.4071 21V13.86H38.4291L38.4851 15.232H38.5691C38.6905 14.8307 38.8631 14.5227 39.0871 14.308C39.3111 14.0933 39.5818 13.9487 39.8991 13.874C40.2165 13.79 40.5665 13.748 40.9491 13.748V14.868C40.3051 14.868 39.8105 14.9707 39.4651 15.176C39.1198 15.3813 38.8818 15.6987 38.7511 16.128C38.6205 16.5573 38.5551 17.0987 38.5551 17.752V21H37.4071ZM45.3914 21.112C44.8127 21.112 44.3274 21.0747 43.9354 21C43.5527 20.9253 43.2447 20.804 43.0114 20.636C42.7781 20.4587 42.6007 20.23 42.4794 19.95C42.3581 19.6607 42.2787 19.3107 42.2414 18.9C42.2041 18.4893 42.1854 18.004 42.1854 17.444C42.1854 16.7813 42.2134 16.2167 42.2694 15.75C42.3254 15.274 42.4514 14.8913 42.6474 14.602C42.8527 14.3033 43.1701 14.0887 43.5994 13.958C44.0287 13.818 44.6074 13.748 45.3354 13.748C45.8861 13.748 46.3341 13.79 46.6794 13.874C47.0341 13.958 47.3141 14.0887 47.5194 14.266C47.7247 14.4433 47.8741 14.6813 47.9674 14.98C48.0701 15.2693 48.1354 15.6193 48.1634 16.03C48.1914 16.4313 48.2054 16.898 48.2054 17.43V17.808H43.3194C43.3194 18.2933 43.3427 18.69 43.3894 18.998C43.4361 19.306 43.5294 19.544 43.6694 19.712C43.8187 19.88 44.0474 19.9967 44.3554 20.062C44.6727 20.1273 45.1021 20.16 45.6434 20.16C45.8674 20.16 46.1147 20.1553 46.3854 20.146C46.6561 20.1273 46.9267 20.104 47.1974 20.076C47.4681 20.048 47.7107 20.02 47.9254 19.992V20.916C47.7294 20.9533 47.4867 20.986 47.1974 21.014C46.9174 21.042 46.6187 21.0653 46.3014 21.084C45.9934 21.1027 45.6901 21.112 45.3914 21.112ZM47.0994 17.234V16.856C47.0994 16.3707 47.0714 15.988 47.0154 15.708C46.9594 15.4187 46.8614 15.204 46.7214 15.064C46.5907 14.9147 46.4087 14.8167 46.1754 14.77C45.9421 14.7233 45.6527 14.7 45.3074 14.7C44.8594 14.7 44.5047 14.7327 44.2434 14.798C43.9821 14.854 43.7861 14.9613 43.6554 15.12C43.5247 15.2787 43.4361 15.5073 43.3894 15.806C43.3427 16.1047 43.3194 16.5013 43.3194 16.996H47.3654L47.0994 17.234ZM52.6377 21.112C52.1244 21.112 51.695 21.056 51.3497 20.944C51.0137 20.832 50.7477 20.6407 50.5517 20.37C50.3557 20.09 50.2157 19.712 50.1317 19.236C50.0477 18.76 50.0057 18.1627 50.0057 17.444C50.0057 16.716 50.043 16.114 50.1177 15.638C50.2017 15.1527 50.3417 14.7747 50.5377 14.504C50.7337 14.2333 50.9997 14.042 51.3357 13.93C51.6717 13.8087 52.0964 13.748 52.6097 13.748C52.9924 13.748 53.333 13.7807 53.6317 13.846C53.9304 13.902 54.187 14.0047 54.4017 14.154C54.6257 14.3033 54.803 14.5087 54.9337 14.77H55.0037V10.598H56.1517V21H55.1297L55.0737 19.978H54.9897C54.859 20.3047 54.6677 20.552 54.4157 20.72C54.173 20.8787 53.8977 20.9813 53.5897 21.028C53.2817 21.084 52.9644 21.112 52.6377 21.112ZM53.0857 20.104C53.5617 20.104 53.9397 20.0387 54.2197 19.908C54.4997 19.7773 54.6957 19.572 54.8077 19.292C54.901 19.0307 54.957 18.746 54.9757 18.438C54.9944 18.13 55.0037 17.766 55.0037 17.346C55.0037 17.0007 54.9944 16.688 54.9757 16.408C54.957 16.1187 54.9057 15.8667 54.8217 15.652C54.7004 15.3347 54.4997 15.1107 54.2197 14.98C53.9397 14.84 53.5524 14.77 53.0577 14.77C52.6377 14.77 52.3017 14.798 52.0497 14.854C51.7977 14.91 51.6064 15.0313 51.4757 15.218C51.345 15.3953 51.2564 15.6613 51.2097 16.016C51.163 16.3613 51.1397 16.8327 51.1397 17.43C51.1397 18.0273 51.163 18.5033 51.2097 18.858C51.2564 19.2127 51.345 19.4787 51.4757 19.656C51.6064 19.8333 51.7977 19.9547 52.0497 20.02C52.311 20.076 52.6564 20.104 53.0857 20.104ZM65.3664 21.112C65.0398 21.112 64.7224 21.084 64.4144 21.028C64.1064 20.9813 63.8311 20.8787 63.5884 20.72C63.3458 20.552 63.1544 20.3047 63.0144 19.978H62.9304L62.8884 21H61.8524V10.598H63.0004V14.77H63.0704C63.2011 14.5087 63.3738 14.3033 63.5884 14.154C63.8124 14.0047 64.0738 13.902 64.3724 13.846C64.6711 13.7807 65.0118 13.748 65.3944 13.748C65.9078 13.748 66.3324 13.8087 66.6684 13.93C67.0044 14.042 67.2704 14.2333 67.4664 14.504C67.6624 14.7747 67.7978 15.148 67.8724 15.624C67.9564 16.1 67.9984 16.702 67.9984 17.43C67.9984 18.158 67.9564 18.76 67.8724 19.236C67.7884 19.712 67.6484 20.0853 67.4524 20.356C67.2564 20.6267 66.9858 20.8227 66.6404 20.944C66.3044 21.056 65.8798 21.112 65.3664 21.112ZM64.9184 20.104C65.3478 20.104 65.6884 20.076 65.9404 20.02C66.2018 19.9547 66.3978 19.8333 66.5284 19.656C66.6591 19.4787 66.7478 19.2127 66.7944 18.858C66.8411 18.5033 66.8644 18.0273 66.8644 17.43C66.8644 16.8327 66.8411 16.3613 66.7944 16.016C66.7478 15.6613 66.6591 15.3953 66.5284 15.218C66.3978 15.0313 66.2018 14.91 65.9404 14.854C65.6884 14.798 65.3478 14.77 64.9184 14.77C64.4611 14.77 64.0971 14.8307 63.8264 14.952C63.5558 15.064 63.3644 15.246 63.2524 15.498C63.1404 15.7407 63.0704 16.0207 63.0424 16.338C63.0144 16.646 63.0004 17.01 63.0004 17.43C63.0004 17.8407 63.0098 18.2047 63.0284 18.522C63.0564 18.83 63.1264 19.1053 63.2384 19.348C63.3598 19.6093 63.5558 19.8007 63.8264 19.922C64.0971 20.0433 64.4611 20.104 64.9184 20.104ZM72.8543 23.884C72.5836 23.884 72.2989 23.8747 72.0003 23.856C71.7109 23.8467 71.4309 23.8327 71.1603 23.814C70.8989 23.8047 70.6656 23.786 70.4603 23.758V22.848C70.7683 22.8573 71.0483 22.8667 71.3003 22.876C71.5616 22.8947 71.7996 22.904 72.0143 22.904C72.2383 22.9133 72.4389 22.918 72.6163 22.918C73.1576 22.918 73.5823 22.876 73.8903 22.792C74.2076 22.708 74.4409 22.568 74.5903 22.372C74.7396 22.1853 74.8329 21.9333 74.8703 21.616C74.9169 21.2987 74.9403 20.9113 74.9403 20.454V20.034H74.8563C74.7816 20.2207 74.6556 20.3933 74.4783 20.552C74.3009 20.7107 74.0583 20.8367 73.7503 20.93C73.4423 21.0233 73.0409 21.07 72.5463 21.07C72.0236 21.07 71.5989 21.0187 71.2723 20.916C70.9549 20.804 70.7123 20.636 70.5443 20.412C70.3763 20.1787 70.2596 19.8893 70.1943 19.544C70.1383 19.1987 70.1103 18.788 70.1103 18.312V13.86H71.2583V17.906C71.2583 18.3913 71.2769 18.7787 71.3143 19.068C71.3516 19.3573 71.4309 19.5767 71.5523 19.726C71.6829 19.866 71.8649 19.9593 72.0983 20.006C72.3316 20.0527 72.6349 20.076 73.0083 20.076C73.4749 20.076 73.8389 20.02 74.1003 19.908C74.3616 19.7867 74.5483 19.614 74.6603 19.39C74.7816 19.166 74.8563 18.9 74.8843 18.592C74.9216 18.2747 74.9403 17.92 74.9403 17.528V13.86H76.0743V20.118C76.0743 20.7993 76.0369 21.378 75.9623 21.854C75.8969 22.3393 75.7523 22.7267 75.5283 23.016C75.3136 23.3147 74.9916 23.534 74.5623 23.674C74.1329 23.814 73.5636 23.884 72.8543 23.884Z" fill="black"/>
</svg>
